<mxfile host="app.diagrams.net" modified="2024-07-09T07:45:48.229Z" agent="Mozilla/5.0 (Macintosh; Intel Mac OS X 10_15_7) AppleWebKit/537.36 (KHTML, like Gecko) Chrome/126.0.0.0 Safari/537.36" etag="tEXtlw4SpaDcvUVMu0ts" version="24.6.4" type="github">
  <diagram name="第 1 页" id="EiqTFw-xltYCKg7H38Jd">
    <mxGraphModel dx="1781" dy="521" grid="1" gridSize="10" guides="1" tooltips="1" connect="1" arrows="1" fold="1" page="1" pageScale="1" pageWidth="827" pageHeight="1169" math="0" shadow="0">
      <root>
        <mxCell id="0" />
        <mxCell id="1" parent="0" />
        <mxCell id="HZLF1IvFLTYPAJLv_PLA-14" value="" style="rounded=0;sketch=1;hachureGap=4;jiggle=2;curveFitting=1;orthogonalLoop=1;jettySize=auto;html=1;fontFamily=Architects Daughter;fontSource=https%3A%2F%2Ffonts.googleapis.com%2Fcss%3Ffamily%3DArchitects%2BDaughter;" edge="1" parent="1" source="HZLF1IvFLTYPAJLv_PLA-1" target="HZLF1IvFLTYPAJLv_PLA-4">
          <mxGeometry relative="1" as="geometry" />
        </mxCell>
        <mxCell id="HZLF1IvFLTYPAJLv_PLA-18" style="rounded=0;sketch=1;hachureGap=4;jiggle=2;curveFitting=1;orthogonalLoop=1;jettySize=auto;html=1;entryX=0;entryY=0.5;entryDx=0;entryDy=0;fontFamily=Architects Daughter;fontSource=https%3A%2F%2Ffonts.googleapis.com%2Fcss%3Ffamily%3DArchitects%2BDaughter;" edge="1" parent="1" source="HZLF1IvFLTYPAJLv_PLA-1" target="HZLF1IvFLTYPAJLv_PLA-16">
          <mxGeometry relative="1" as="geometry" />
        </mxCell>
        <mxCell id="HZLF1IvFLTYPAJLv_PLA-24" value="" style="edgeStyle=none;shape=connector;rounded=0;sketch=1;hachureGap=4;jiggle=2;curveFitting=1;orthogonalLoop=1;jettySize=auto;html=1;strokeColor=default;align=center;verticalAlign=middle;fontFamily=Architects Daughter;fontSource=https%3A%2F%2Ffonts.googleapis.com%2Fcss%3Ffamily%3DArchitects%2BDaughter;fontSize=11;fontColor=default;labelBackgroundColor=default;endArrow=classic;" edge="1" parent="1" source="HZLF1IvFLTYPAJLv_PLA-1" target="HZLF1IvFLTYPAJLv_PLA-23">
          <mxGeometry relative="1" as="geometry" />
        </mxCell>
        <mxCell id="HZLF1IvFLTYPAJLv_PLA-1" value="&lt;font style=&quot;font-size: 21px;&quot;&gt;流程模板&lt;/font&gt;" style="ellipse;whiteSpace=wrap;html=1;sketch=1;hachureGap=4;jiggle=2;curveFitting=1;fontFamily=Architects Daughter;fontSource=https%3A%2F%2Ffonts.googleapis.com%2Fcss%3Ffamily%3DArchitects%2BDaughter;" vertex="1" parent="1">
          <mxGeometry x="170" y="120" width="120" height="90" as="geometry" />
        </mxCell>
        <mxCell id="HZLF1IvFLTYPAJLv_PLA-2" value="user" style="shape=umlActor;verticalLabelPosition=bottom;verticalAlign=top;html=1;outlineConnect=0;sketch=1;hachureGap=4;jiggle=2;curveFitting=1;fontFamily=Architects Daughter;fontSource=https%3A%2F%2Ffonts.googleapis.com%2Fcss%3Ffamily%3DArchitects%2BDaughter;" vertex="1" parent="1">
          <mxGeometry x="-210" y="310" width="30" height="60" as="geometry" />
        </mxCell>
        <mxCell id="HZLF1IvFLTYPAJLv_PLA-27" value="" style="edgeStyle=none;shape=connector;rounded=0;sketch=1;hachureGap=4;jiggle=2;curveFitting=1;orthogonalLoop=1;jettySize=auto;html=1;strokeColor=default;align=center;verticalAlign=middle;fontFamily=Architects Daughter;fontSource=https%3A%2F%2Ffonts.googleapis.com%2Fcss%3Ffamily%3DArchitects%2BDaughter;fontSize=12;fontColor=default;labelBackgroundColor=default;endArrow=classic;" edge="1" parent="1" source="HZLF1IvFLTYPAJLv_PLA-3" target="HZLF1IvFLTYPAJLv_PLA-26">
          <mxGeometry relative="1" as="geometry" />
        </mxCell>
        <mxCell id="HZLF1IvFLTYPAJLv_PLA-3" value="&lt;font style=&quot;font-size: 21px;&quot;&gt;事件&lt;/font&gt;" style="ellipse;whiteSpace=wrap;html=1;sketch=1;hachureGap=4;jiggle=2;curveFitting=1;fontFamily=Architects Daughter;fontSource=https%3A%2F%2Ffonts.googleapis.com%2Fcss%3Ffamily%3DArchitects%2BDaughter;" vertex="1" parent="1">
          <mxGeometry x="170" y="530" width="120" height="80" as="geometry" />
        </mxCell>
        <mxCell id="HZLF1IvFLTYPAJLv_PLA-21" value="" style="rounded=0;sketch=1;hachureGap=4;jiggle=2;curveFitting=1;orthogonalLoop=1;jettySize=auto;html=1;fontFamily=Architects Daughter;fontSource=https%3A%2F%2Ffonts.googleapis.com%2Fcss%3Ffamily%3DArchitects%2BDaughter;" edge="1" parent="1" source="HZLF1IvFLTYPAJLv_PLA-4" target="HZLF1IvFLTYPAJLv_PLA-20">
          <mxGeometry relative="1" as="geometry" />
        </mxCell>
        <mxCell id="HZLF1IvFLTYPAJLv_PLA-4" value="&lt;font style=&quot;font-size: 21px;&quot;&gt;动作设计&lt;/font&gt;" style="ellipse;whiteSpace=wrap;html=1;sketch=1;hachureGap=4;jiggle=2;curveFitting=1;fontFamily=Architects Daughter;fontSource=https%3A%2F%2Ffonts.googleapis.com%2Fcss%3Ffamily%3DArchitects%2BDaughter;" vertex="1" parent="1">
          <mxGeometry x="410" y="30" width="120" height="80" as="geometry" />
        </mxCell>
        <mxCell id="HZLF1IvFLTYPAJLv_PLA-16" value="&lt;font style=&quot;font-size: 21px;&quot;&gt;流程编排&lt;/font&gt;" style="ellipse;whiteSpace=wrap;html=1;sketch=1;hachureGap=4;jiggle=2;curveFitting=1;fontFamily=Architects Daughter;fontSource=https%3A%2F%2Ffonts.googleapis.com%2Fcss%3Ffamily%3DArchitects%2BDaughter;" vertex="1" parent="1">
          <mxGeometry x="420" y="140" width="120" height="80" as="geometry" />
        </mxCell>
        <mxCell id="HZLF1IvFLTYPAJLv_PLA-20" value="&lt;span style=&quot;font-size: 21px;&quot;&gt;表单设计&lt;/span&gt;" style="ellipse;whiteSpace=wrap;html=1;sketch=1;hachureGap=4;jiggle=2;curveFitting=1;fontFamily=Architects Daughter;fontSource=https%3A%2F%2Ffonts.googleapis.com%2Fcss%3Ffamily%3DArchitects%2BDaughter;" vertex="1" parent="1">
          <mxGeometry x="610" y="30" width="120" height="80" as="geometry" />
        </mxCell>
        <mxCell id="HZLF1IvFLTYPAJLv_PLA-23" value="&lt;font style=&quot;font-size: 21px;&quot;&gt;流程编辑&lt;/font&gt;" style="ellipse;whiteSpace=wrap;html=1;sketch=1;hachureGap=4;jiggle=2;curveFitting=1;fontFamily=Architects Daughter;fontSource=https%3A%2F%2Ffonts.googleapis.com%2Fcss%3Ffamily%3DArchitects%2BDaughter;" vertex="1" parent="1">
          <mxGeometry x="420" y="270" width="120" height="90" as="geometry" />
        </mxCell>
        <mxCell id="HZLF1IvFLTYPAJLv_PLA-25" style="edgeStyle=none;shape=connector;rounded=0;sketch=1;hachureGap=4;jiggle=2;curveFitting=1;orthogonalLoop=1;jettySize=auto;html=1;exitX=1;exitY=0.3333333333333333;exitDx=0;exitDy=0;exitPerimeter=0;entryX=0;entryY=0.617;entryDx=0;entryDy=0;entryPerimeter=0;strokeColor=default;align=center;verticalAlign=middle;fontFamily=Architects Daughter;fontSource=https%3A%2F%2Ffonts.googleapis.com%2Fcss%3Ffamily%3DArchitects%2BDaughter;fontSize=12;fontColor=default;labelBackgroundColor=default;endArrow=classic;" edge="1" parent="1" source="HZLF1IvFLTYPAJLv_PLA-2" target="HZLF1IvFLTYPAJLv_PLA-1">
          <mxGeometry relative="1" as="geometry" />
        </mxCell>
        <mxCell id="HZLF1IvFLTYPAJLv_PLA-26" value="&lt;font style=&quot;font-size: 21px;&quot;&gt;流程实例&lt;/font&gt;" style="ellipse;whiteSpace=wrap;html=1;sketch=1;hachureGap=4;jiggle=2;curveFitting=1;fontFamily=Architects Daughter;fontSource=https%3A%2F%2Ffonts.googleapis.com%2Fcss%3Ffamily%3DArchitects%2BDaughter;" vertex="1" parent="1">
          <mxGeometry x="370" y="420" width="120" height="80" as="geometry" />
        </mxCell>
      </root>
    </mxGraphModel>
  </diagram>
</mxfile>
